<?xml version="1.0" standalone="no"?>
<!DOCTYPE svg PUBLIC "-//W3C//DTD SVG 20010904//EN"
 "http://www.w3.org/TR/2001/REC-SVG-20010904/DTD/svg10.dtd">
<svg version="1.0" xmlns="http://www.w3.org/2000/svg"
 width="512.000000pt" height="512.000000pt" viewBox="0 0 512.000000 512.000000"
 preserveAspectRatio="xMidYMid meet">

<g transform="translate(0.000000,512.000000) scale(0.100000,-0.100000)"
fill="#000000" stroke="none">
<path d="M1615 4621 c-115 -37 -225 -123 -281 -218 -53 -90 -66 -148 -71 -305
l-5 -148 -385 0 c-428 0 -453 -3 -574 -66 -121 -63 -226 -189 -272 -323 l-22
-66 -3 -1245 c-2 -875 1 -1264 8 -1310 32 -187 171 -353 356 -427 l69 -28
2125 0 2125 0 69 28 c185 74 324 240 356 427 7 46 10 435 8 1310 l-3 1245 -22
66 c-46 134 -151 260 -272 323 -121 63 -146 66 -574 66 l-385 0 -5 148 c-5
157 -18 215 -71 305 -57 97 -168 182 -286 219 -51 16 -127 18 -945 17 -798 -1
-895 -3 -940 -18z m1161 -1176 c858 -150 1302 -1120 856 -1870 -333 -561
-1055 -769 -1636 -472 -369 188 -609 523 -671 937 -68 444 126 904 496 1180
143 107 339 192 514 223 110 20 331 21 441 2z"/>
<path d="M2445 3034 c-379 -61 -667 -363 -704 -736 -39 -404 210 -766 607
-880 110 -32 314 -32 424 0 335 96 573 374 606 707 25 258 -57 493 -237 672
-99 99 -239 180 -376 217 -60 17 -263 29 -320 20z"/>
</g>
</svg>
