<?xml version="1.0" standalone="no"?>
<!DOCTYPE svg PUBLIC "-//W3C//DTD SVG 20010904//EN"
 "http://www.w3.org/TR/2001/REC-SVG-20010904/DTD/svg10.dtd">
<svg version="1.0" xmlns="http://www.w3.org/2000/svg"
 width="512.000000pt" height="512.000000pt" viewBox="0 0 512.000000 512.000000"
 preserveAspectRatio="xMidYMid meet">

<g transform="translate(0.000000,512.000000) scale(0.100000,-0.100000)"
fill="#000000" stroke="none">
<path d="M2940 5109 c-791 -81 -1463 -568 -1668 -1209 -17 -52 -34 -113 -38
-134 -6 -35 -5 -39 12 -34 163 48 295 80 396 97 580 96 1148 16 1653 -233 258
-127 430 -248 622 -437 362 -355 558 -767 598 -1256 l7 -83 242 0 c274 0 292
4 333 76 27 46 29 93 7 136 -9 18 -97 125 -196 240 l-179 209 39 44 c145 165
272 426 324 668 31 146 31 408 0 554 -158 735 -849 1283 -1717 1363 -128 12
-313 11 -435 -1z"/>
<path d="M1920 3563 c-392 -30 -811 -172 -1115 -376 -216 -145 -416 -345 -547
-547 -264 -405 -326 -871 -178 -1335 59 -186 185 -415 304 -554 l46 -53 -32
-37 c-287 -326 -381 -436 -388 -457 -26 -68 6 -151 70 -184 39 -20 56 -20
1154 -20 1192 0 1233 1 1431 51 762 190 1377 766 1519 1424 75 343 32 673
-130 1000 -88 180 -173 295 -339 460 -149 149 -261 235 -435 334 -394 224
-889 331 -1360 294z m-586 -1477 c105 -51 161 -144 161 -266 0 -85 -21 -142
-74 -203 -82 -92 -237 -121 -353 -64 -160 79 -215 278 -118 430 80 126 246
170 384 103z m910 0 c105 -51 161 -144 161 -266 0 -85 -21 -142 -74 -203 -82
-92 -237 -121 -353 -64 -160 79 -215 278 -118 430 80 126 246 170 384 103z
m910 0 c105 -51 161 -144 161 -266 0 -85 -21 -142 -74 -203 -82 -92 -237 -121
-353 -64 -160 79 -215 278 -118 430 80 126 246 170 384 103z"/>
</g>
</svg>
